<svg xmlns="http://www.w3.org/2000/svg" xmlns:xlink="http://www.w3.org/1999/xlink" width="1024" zoomAndPan="magnify" viewBox="0 0 768 767.999994" height="1024" preserveAspectRatio="xMidYMid meet" version="1.0"><defs><g/><clipPath id="26be21377d"><path d="M 28.480469 450.011719 L 113.78125 450.011719 L 113.78125 535.3125 L 28.480469 535.3125 Z M 28.480469 450.011719 " clip-rule="nonzero"/></clipPath><clipPath id="d2281000ba"><path d="M 71.128906 450.011719 C 47.574219 450.011719 28.480469 469.105469 28.480469 492.660156 C 28.480469 516.214844 47.574219 535.3125 71.128906 535.3125 C 94.683594 535.3125 113.78125 516.214844 113.78125 492.660156 C 113.78125 469.105469 94.683594 450.011719 71.128906 450.011719 Z M 71.128906 450.011719 " clip-rule="nonzero"/></clipPath><clipPath id="0643c66ec2"><path d="M 0.480469 0.0117188 L 85.78125 0.0117188 L 85.78125 85.3125 L 0.480469 85.3125 Z M 0.480469 0.0117188 " clip-rule="nonzero"/></clipPath><clipPath id="16336d8ff7"><path d="M 43.128906 0.0117188 C 19.574219 0.0117188 0.480469 19.105469 0.480469 42.660156 C 0.480469 66.214844 19.574219 85.3125 43.128906 85.3125 C 66.683594 85.3125 85.78125 66.214844 85.78125 42.660156 C 85.78125 19.105469 66.683594 0.0117188 43.128906 0.0117188 Z M 43.128906 0.0117188 " clip-rule="nonzero"/></clipPath><clipPath id="bd5c3adfc5"><rect x="0" width="86" y="0" height="86"/></clipPath></defs><rect x="-76.8" width="921.6" fill="#ffffff" y="-76.799999" height="921.599993" fill-opacity="1"/><rect x="-76.8" width="921.6" fill="#ffffff" y="-76.799999" height="921.599993" fill-opacity="1"/><g clip-path="url(#26be21377d)"><g clip-path="url(#d2281000ba)"><g transform="matrix(1, 0, 0, 1, 28, 450)"><g clip-path="url(#bd5c3adfc5)"><g clip-path="url(#0643c66ec2)"><g clip-path="url(#16336d8ff7)"><path fill="#d05935" d="M 0.480469 0.0117188 L 85.78125 0.0117188 L 85.78125 85.3125 L 0.480469 85.3125 Z M 0.480469 0.0117188 " fill-opacity="1" fill-rule="nonzero"/></g></g></g></g></g></g><g fill="#000000" fill-opacity="1"><g transform="translate(113.843376, 531.599998)"><g><path d="M 30.640625 0 L 30.640625 -233.09375 L 96.34375 -233.09375 L 96.34375 -193.578125 L 99.015625 -193.578125 C 103.160156 -206.015625 110.265625 -216.597656 120.328125 -225.328125 C 130.390625 -234.054688 144.148438 -238.421875 161.609375 -238.421875 C 177.597656 -238.421875 191.21875 -234.425781 202.46875 -226.4375 C 213.71875 -218.445312 221.859375 -206.753906 226.890625 -191.359375 L 228.21875 -191.359375 C 230.289062 -197.867188 233.472656 -204.007812 237.765625 -209.78125 C 242.054688 -215.5625 247.304688 -220.519531 253.515625 -224.65625 C 259.734375 -228.800781 266.691406 -232.128906 274.390625 -234.640625 C 282.085938 -237.160156 290.375 -238.421875 299.25 -238.421875 C 321.75 -238.421875 338.992188 -230.425781 350.984375 -214.4375 C 362.972656 -198.457031 368.96875 -175.671875 368.96875 -146.078125 L 368.96875 0 L 303.25 0 L 303.25 -140.75 C 303.25 -170.34375 292.59375 -185.140625 271.28125 -185.140625 C 261.507812 -185.140625 252.628906 -182.328125 244.640625 -176.703125 C 236.648438 -171.085938 232.65625 -162.503906 232.65625 -150.953125 L 232.65625 0 L 166.9375 0 L 166.9375 -140.75 C 166.9375 -170.34375 156.28125 -185.140625 134.96875 -185.140625 C 130.238281 -185.140625 125.578125 -184.472656 120.984375 -183.140625 C 116.398438 -181.816406 112.257812 -179.671875 108.5625 -176.703125 C 104.863281 -173.742188 101.898438 -170.117188 99.671875 -165.828125 C 97.453125 -161.535156 96.34375 -156.578125 96.34375 -150.953125 L 96.34375 0 Z M 30.640625 0 "/></g></g></g><g fill="#000000" fill-opacity="1"><g transform="translate(470.818661, 531.599998)"><g><path d="M 173.609375 -39.078125 L 171.390625 -39.078125 C 169.609375 -32.859375 166.789062 -27.007812 162.9375 -21.53125 C 159.09375 -16.050781 154.429688 -11.3125 148.953125 -7.3125 C 143.484375 -3.320312 137.269531 -0.21875 130.3125 2 C 123.351562 4.21875 116.175781 5.328125 108.78125 5.328125 C 79.175781 5.328125 56.828125 -5.101562 41.734375 -25.96875 C 26.640625 -46.84375 19.09375 -77.109375 19.09375 -116.765625 C 19.09375 -156.429688 26.640625 -186.625 41.734375 -207.34375 C 56.828125 -228.0625 79.175781 -238.421875 108.78125 -238.421875 C 123.875 -238.421875 137.265625 -234.273438 148.953125 -225.984375 C 160.648438 -217.703125 168.128906 -207.050781 171.390625 -194.03125 L 173.609375 -194.03125 L 173.609375 -328.5625 L 239.3125 -328.5625 L 239.3125 0 L 173.609375 0 Z M 130.53125 -47.953125 C 142.96875 -47.953125 153.253906 -50.984375 161.390625 -57.046875 C 169.535156 -63.117188 173.609375 -71.484375 173.609375 -82.140625 L 173.609375 -150.953125 C 173.609375 -161.609375 169.535156 -169.96875 161.390625 -176.03125 C 153.253906 -182.101562 142.96875 -185.140625 130.53125 -185.140625 C 118.101562 -185.140625 107.816406 -180.773438 99.671875 -172.046875 C 91.535156 -163.316406 87.46875 -151.550781 87.46875 -136.75 L 87.46875 -96.34375 C 87.46875 -81.539062 91.535156 -69.773438 99.671875 -61.046875 C 107.816406 -52.316406 118.101562 -47.953125 130.53125 -47.953125 Z M 130.53125 -47.953125 "/></g></g></g></svg>